<?xml version="1.0" encoding="utf-8"?>
<!-- Generator: Adobe Illustrator 24.2.1, SVG Export Plug-In . SVG Version: 6.00 Build 0)  -->
<svg version="1.1" xmlns="http://www.w3.org/2000/svg" xmlns:xlink="http://www.w3.org/1999/xlink" x="0px" y="0px"
	 viewBox="0 0 684.1 172.3" style="enable-background:new 0 0 684.1 172.3;" xml:space="preserve">
<style type="text/css">
	.st0{opacity:0.5;fill:url(#SVGID_1_);}
	.st1{fill:#FFFFFF;}
</style>
<g id="Layer_2">
	<linearGradient id="SVGID_1_" gradientUnits="userSpaceOnUse" x1="345.6896" y1="97.1596" x2="345.6896" y2="58.5321">
		<stop  offset="0" style="stop-color:#000000"/>
		<stop  offset="1" style="stop-color:#2484C6;stop-opacity:0"/>
	</linearGradient>
	<path class="st0" d="M156.6,71.3L127,84.5c-8.5,3.8-14.1,6.4-16.6,7.8c-2.6,1.4-3.8,2.3-3.6,2.6c0.3,0.7,2.5,1,6.5,1l-1.2,0.6
		l-32.2,0l1.7-0.6c3.9,0,7.5-0.3,10.8-1c2.7-0.5,7.5-2.3,14.3-5.2c2.8-1.2,6.7-2.9,11.9-5.2l50.4-22.6L59.2,96.1l28.8-28.9
		L50.1,84.4C42.3,88,37,90.6,34.3,92.2c-2.7,1.6-3.8,2.6-3.1,3.1c0.6,0.5,2.9,0.7,6.8,0.7l-1.2,0.6l-29.5,0L8.9,96
		c3,0,5.4-0.1,7.3-0.3c1.9-0.2,4.3-0.7,7.2-1.6c2.9-0.9,6.1-2,9.5-3.4c3.4-1.4,8.1-3.5,14.2-6.2l28.8-13.1c6-2.7,10.5-4.8,13.3-6.2
		c2.8-1.4,4.7-2.6,5.5-3.4c0.8-0.9,0.7-1.4-0.4-1.6c-1.1-0.2-3.1-0.3-6.1-0.3l1-0.6l16.4,0L74.3,90.4l100.1-31.2l21.4,0l-1.6,0.6
		c-4.1,0-7.8,0.3-11.2,1C179.3,61.6,170.5,65.1,156.6,71.3z M225.8,71.3l-30,13.3c-8.6,3.8-14.3,6.4-16.9,7.8
		c-2.6,1.4-3.9,2.3-3.7,2.6c0.3,0.7,2.5,1,6.5,1l-1.2,0.6l-32.4,0l1.7-0.6c2,0,3.6,0,4.9-0.1c1.3-0.1,2.8-0.3,4.5-0.6
		c1.7-0.3,3.3-0.7,4.6-1.1c1.4-0.4,3.3-1.1,5.8-2.1c3.2-1.2,9.1-3.8,17.7-7.6l29.9-13.3c8.4-3.7,14-6.3,16.8-7.8
		c2.8-1.5,4.1-2.4,4-2.7c-0.4-0.7-2.7-1-6.7-1l1.1-0.6l33,0l-1.6,0.6c-4.1,0-7.8,0.3-11.2,1C248.8,61.5,239.9,65,225.8,71.3z
		 M274,96.6l-57.4,0l1.7-0.6c1.9,0,3.5,0,4.9-0.1c1.3-0.1,2.8-0.3,4.5-0.6c1.7-0.3,3.2-0.7,4.6-1.1c1.4-0.4,3.3-1.1,5.9-2.1
		c3.3-1.2,9.2-3.8,18-7.6l30.4-13.3c12.2-5.3,19-8.5,20.4-9.7c1.2-1,0.7-1.6-1.5-1.7c-1.1-0.1-2.6-0.1-4.5-0.1l1.1-0.6l32.8,0
		l-1.6,0.6c-4.1,0-7.8,0.3-11.2,1c-3.7,0.8-12.8,4.2-27.1,10.5l-32.2,14.1c-8.8,3.9-14.4,6.4-16.7,7.7c-2.3,1.3-3,2.1-1.9,2.5
		c20.7,0,36-2.2,46.2-6.6l1.6-0.1L274,96.6z M362.9,95.7c1.7-0.2,3.7-0.8,5.8-1.7c2.1-0.9,7.1-3.9,15-9.1l-36.8,0
		c-14,4.5-22.3,7.4-25,8.5c-2.7,1.2-3.7,1.9-3,2.1c0.7,0.3,2.8,0.4,6.2,0.4l-1.3,0.6l-27,0l1.7-0.6c2.3,0,4.3-0.1,6.1-0.3
		c1.7-0.2,4.3-0.7,7.6-1.4c3.3-0.8,7.4-1.9,12.3-3.3c4.8-1.5,11.3-3.5,19.5-6.2L386.7,71c15.1-4.9,23.9-7.8,26.3-8.8
		c2.4-1,3.4-1.7,3-2c-0.4-0.3-2.3-0.5-5.5-0.5l1.1-0.6l20.1,0l-38.6,25.7c-6.4,4.3-10.3,7-11.7,8.1c-1.4,1.1-2,1.9-1.6,2.2
		c0.6,0.6,2.4,0.9,5.4,0.9l-1.3,0.6l-30,0l1.7-0.6C358.7,96,361.1,95.9,362.9,95.7z M418.1,62l-67.4,21.6l34.9,0L418.1,62z
		 M546,71.1l-61.7,25.8l-3.7,0L499.6,65l-46,19.4c-8.5,3.6-14.2,6.2-17.2,7.7c-3,1.6-4.3,2.6-3.8,3.1c0.5,0.5,2.7,0.8,6.5,0.8
		l-1.3,0.6l-29.5,0l1.8-0.6c3.8,0,7.2-0.2,10.1-0.8c2.9-0.5,6.5-1.5,11-3.1c4.5-1.6,11-4.1,19.4-7.7L482,71.1
		c8.5-3.6,14.2-6.1,17.1-7.7c2.9-1.6,4.1-2.6,3.6-3.1c-0.5-0.5-2.8-0.7-6.8-0.7l1.2-0.6l16.6,0L495.4,91l47.5-19.9
		c8.5-3.5,14.2-6.1,17.2-7.7c3-1.6,4.2-2.6,3.7-3.1c-0.6-0.5-2.8-0.7-6.8-0.7l1.2-0.6l30.3,0l-1.7,0.6c-4,0-7.4,0.2-10.3,0.7
		c-2.9,0.5-6.6,1.5-11.1,3.1C560.9,65,554.4,67.6,546,71.1z M665.5,58.5c13.1,0,19.3,1.8,18.5,5.3c-0.8,3.5-8.1,8.1-21.8,13.7
		c-13.7,5.6-29,10.3-45.6,14c-16.6,3.7-31.4,5.6-44.2,5.6c-12.8,0-18.5-1.9-17.3-5.6c1.3-3.8,8.7-8.4,22.2-14
		c13.5-5.6,28.3-10.2,44.4-13.7C637.8,60.3,652.4,58.5,665.5,58.5z M575.3,95.9c10.2,0,22-1.7,35.4-5c13.4-3.3,26.8-7.7,40-13.1
		c13.2-5.4,21.1-9.8,23.6-13.1c2.4-3.3-1.5-5-11.9-5c-10.4,0-22.3,1.7-35.6,5c-13.4,3.3-26.6,7.7-39.7,13.1
		c-13.1,5.4-20.9,9.8-23.3,13.1C561.3,94.3,565.1,95.9,575.3,95.9z"/>
</g>
<g id="Layer_1">
	<g>
		<path class="st1" d="M98.9,39.1v29.8c0,8.6,0.3,14.4,0.8,17.5c0.5,3.1,1.3,5.1,2.2,5.9c1.8,1.5,4.8,2.3,8.8,2.3l0.2,1.4H78.7
			l0.2-1.4c3.9,0,6.8-0.7,8.6-2.2c1.5-1.2,2.4-5.1,2.6-11.8c0.2-2.6,0.2-6.6,0.2-11.8V18.1L56.9,94.8L22.2,29.8v38.8
			c0,8,0.4,13.8,1.1,17.3c0.8,3.6,2,5.9,3.7,7s4.5,1.6,8.4,1.6l0.2,1.4H6.1l0.2-1.4c3,0,5.2-0.2,6.7-0.7c1.5-0.4,2.7-1.6,3.8-3.5
			c1-1.9,1.7-4.5,2-7.7c0.3-3.2,0.4-7.9,0.4-14V39.2c0-6.2-0.1-10.8-0.4-14c-0.3-3.2-0.9-5.8-2-7.7c-1-1.9-2.3-3.1-3.8-3.5
			c-1.5-0.4-3.7-0.7-6.7-0.7L6.1,12h16.1l37.1,70l30.6-70h21l-0.2,1.3c-4,0-6.9,0.8-8.8,2.3C99.9,17.2,98.9,25.1,98.9,39.1z"/>
		<path class="st1" d="M167.3,39.1v29.8c0,8.6,0.3,14.4,0.8,17.5c0.5,3.1,1.3,5.1,2.2,5.9c1.8,1.5,4.8,2.3,8.8,2.3l0.2,1.4h-32.4
			l0.2-1.4c2,0,3.6-0.1,4.7-0.2c1.1-0.2,2.2-0.6,3.2-1.3c1-0.7,1.7-1.5,2.2-2.5c0.4-0.9,0.8-2.5,1.1-4.6c0.4-2.8,0.6-8.5,0.6-17
			V39.1c0-8.3-0.2-14.1-0.7-17.4c-0.5-3.3-1.2-5.3-2.2-6.1c-1.9-1.5-4.9-2.3-8.9-2.3l-0.2-1.3h32.4l-0.2,1.3c-4,0-6.9,0.8-8.8,2.3
			C168.3,17.2,167.3,25.1,167.3,39.1z"/>
		<path class="st1" d="M272.8,96h-57.4l0.2-1.4c1.9,0,3.5-0.1,4.6-0.2c1.2-0.2,2.2-0.6,3.2-1.3s1.7-1.5,2.1-2.5
			c0.4-0.9,0.8-2.5,1.1-4.6c0.4-2.8,0.6-8.5,0.6-17V39.1c0-11.9-0.6-19.2-1.7-21.7c-1-2.2-2.8-3.5-5.3-3.8c-1.2-0.2-2.8-0.2-4.7-0.2
			l-0.2-1.3h32.3l-0.2,1.3c-4,0-6.9,0.8-8.8,2.3c-2,1.7-3,9.5-3,23.5v31.6c0,8.6,0.3,14.4,0.8,17.2c0.6,2.8,1.9,4.7,4,5.7
			c20.6,0,31-4.9,31-14.8l1.3-0.2V96z"/>
		<path class="st1" d="M359.3,93.8c1.2-0.5,1.9-1.7,1.9-3.7c0-2-2.1-8.8-6.4-20.4h-36.6c-3.4,10.2-5.2,16.5-5.2,19.1
			c0,2.6,0.7,4.2,2,4.8c1.3,0.6,3.7,0.9,7.1,0.9l0.2,1.4h-27l0.2-1.4c2.3,0,4.1-0.2,5.5-0.6c1.3-0.4,2.8-1.5,4.3-3.2
			c1.6-1.7,3.1-4.2,4.5-7.5c1.4-3.3,3.2-7.9,5.2-13.8l10.7-30.8c3.8-10.9,5.6-17.5,5.6-19.8c0-2.3-0.6-3.8-1.7-4.5
			c-1.1-0.7-3.3-1-6.5-1L323,12h19.8l21.2,57.5c3.6,9.5,6,15.6,7.3,18.1c1.2,2.6,2.4,4.2,3.5,4.9c2,1.4,4.5,2,7.6,2l0.2,1.4h-30
			l0.2-1.4C356,94.5,358.1,94.3,359.3,93.8z M336.1,18.4l-16.9,48.4h34.7L336.1,18.4z"/>
		<path class="st1" d="M483.6,39v57.6h-3.7l-56.5-71.4v43.4c0,8,0.4,13.8,1.1,17.3c0.7,3.5,1.9,5.8,3.6,7c1.7,1.1,4.4,1.7,8.3,1.7
			l0.2,1.4H407l0.2-1.4c3.8,0,6.6-0.6,8.3-1.7c1.7-1.1,2.9-3.4,3.7-7c0.8-3.5,1.1-9.3,1.1-17.3V39c0-8-0.4-13.7-1.1-17.2
			c-0.8-3.5-2-5.8-3.6-6.8c-1.6-1.1-4.4-1.6-8.3-1.6L407,12h16.3l57.2,71.4V39c0-7.9-0.4-13.6-1.1-17.2c-0.8-3.5-2-5.8-3.7-6.9
			c-1.7-1.1-4.5-1.6-8.4-1.6l-0.2-1.3h29.8l-0.2,1.3c-3.9,0-6.7,0.5-8.4,1.6s-2.9,3.4-3.6,6.9C484,25.3,483.6,31,483.6,39z"/>
		<path class="st1" d="M571.6,10.9c12.9,0,23.2,3.9,30.9,11.8c7.7,7.9,11.6,18.1,11.6,30.6c0,12.5-3.7,23-11.2,31.3
			c-7.5,8.4-17.6,12.5-30.4,12.5c-12.8,0-23.1-4.2-30.9-12.6c-7.8-8.4-11.7-18.9-11.7-31.4c0-12.5,3.7-22.7,11.2-30.5
			C548.5,14.8,558.7,10.9,571.6,10.9z M572.3,94.4c10.2,0,18-3.7,23.3-11.1c5.3-7.4,8-17.1,8-29.2c0-12.1-2.8-21.8-8.4-29.3
			c-5.6-7.4-13.5-11.2-23.7-11.2c-10.2,0-18,3.7-23.3,11c-5.3,7.4-8,17.1-8,29.2s2.8,21.9,8.4,29.3
			C554.2,90.7,562.1,94.4,572.3,94.4z"/>
	</g>
	<g>
		<path d="M98.9,39.1v29.8c0,8.6,0.3,14.4,0.8,17.5c0.5,3.1,1.3,5.1,2.2,5.9c1.8,1.5,4.8,2.3,8.8,2.3l0.2,1.4H78.7l0.2-1.4
			c3.9,0,6.8-0.7,8.6-2.2c1.5-1.2,2.4-5.1,2.6-11.8c0.2-2.6,0.2-6.6,0.2-11.8V18.1L56.9,94.8L22.2,29.8v38.8c0,8,0.4,13.8,1.1,17.3
			c0.8,3.6,2,5.9,3.7,7s4.5,1.6,8.4,1.6l0.2,1.4H6.1l0.2-1.4c3,0,5.2-0.2,6.7-0.7c1.5-0.4,2.7-1.6,3.8-3.5c1-1.9,1.7-4.5,2-7.7
			c0.3-3.2,0.4-7.9,0.4-14V39.2c0-6.2-0.1-10.8-0.4-14c-0.3-3.2-0.9-5.8-2-7.7c-1-1.9-2.3-3.1-3.8-3.5c-1.5-0.4-3.7-0.7-6.7-0.7
			L6.1,12h16.1l37.1,70l30.6-70h21l-0.2,1.3c-4,0-6.9,0.8-8.8,2.3C99.9,17.2,98.9,25.1,98.9,39.1z"/>
		<path d="M167.3,39.1v29.8c0,8.6,0.3,14.4,0.8,17.5c0.5,3.1,1.3,5.1,2.2,5.9c1.8,1.5,4.8,2.3,8.8,2.3l0.2,1.4h-32.4l0.2-1.4
			c2,0,3.6-0.1,4.7-0.2c1.1-0.2,2.2-0.6,3.2-1.3c1-0.7,1.7-1.5,2.2-2.5c0.4-0.9,0.8-2.5,1.1-4.6c0.4-2.8,0.6-8.5,0.6-17V39.1
			c0-8.3-0.2-14.1-0.7-17.4c-0.5-3.3-1.2-5.3-2.2-6.1c-1.9-1.5-4.9-2.3-8.9-2.3l-0.2-1.3h32.4l-0.2,1.3c-4,0-6.9,0.8-8.8,2.3
			C168.3,17.2,167.3,25.1,167.3,39.1z"/>
		<path d="M272.8,96h-57.4l0.2-1.4c1.9,0,3.5-0.1,4.6-0.2c1.2-0.2,2.2-0.6,3.2-1.3s1.7-1.5,2.1-2.5c0.4-0.9,0.8-2.5,1.1-4.6
			c0.4-2.8,0.6-8.5,0.6-17V39.1c0-11.9-0.6-19.2-1.7-21.7c-1-2.2-2.8-3.5-5.3-3.8c-1.2-0.2-2.8-0.2-4.7-0.2l-0.2-1.3h32.3l-0.2,1.3
			c-4,0-6.9,0.8-8.8,2.3c-2,1.7-3,9.5-3,23.5v31.6c0,8.6,0.3,14.4,0.8,17.2c0.6,2.8,1.9,4.7,4,5.7c20.6,0,31-4.9,31-14.8l1.3-0.2V96
			z"/>
		<path d="M359.3,93.8c1.2-0.5,1.9-1.7,1.9-3.7c0-2-2.1-8.8-6.4-20.4h-36.6c-3.4,10.2-5.2,16.5-5.2,19.1c0,2.6,0.7,4.2,2,4.8
			c1.3,0.6,3.7,0.9,7.1,0.9l0.2,1.4h-27l0.2-1.4c2.3,0,4.1-0.2,5.5-0.6c1.3-0.4,2.8-1.5,4.3-3.2c1.6-1.7,3.1-4.2,4.5-7.5
			c1.4-3.3,3.2-7.9,5.2-13.8l10.7-30.8c3.8-10.9,5.6-17.5,5.6-19.8c0-2.3-0.6-3.8-1.7-4.5c-1.1-0.7-3.3-1-6.5-1L323,12h19.8
			l21.2,57.5c3.6,9.5,6,15.6,7.3,18.1c1.2,2.6,2.4,4.2,3.5,4.9c2,1.4,4.5,2,7.6,2l0.2,1.4h-30l0.2-1.4
			C356,94.5,358.1,94.3,359.3,93.8z M336.1,18.4l-16.9,48.4h34.7L336.1,18.4z"/>
		<path d="M483.6,39v57.6h-3.7l-56.5-71.4v43.4c0,8,0.4,13.8,1.1,17.3c0.7,3.5,1.9,5.8,3.6,7c1.7,1.1,4.4,1.7,8.3,1.7l0.2,1.4H407
			l0.2-1.4c3.8,0,6.6-0.6,8.3-1.7c1.7-1.1,2.9-3.4,3.7-7c0.8-3.5,1.1-9.3,1.1-17.3V39c0-8-0.4-13.7-1.1-17.2c-0.8-3.5-2-5.8-3.6-6.8
			c-1.6-1.1-4.4-1.6-8.3-1.6L407,12h16.3l57.2,71.4V39c0-7.9-0.4-13.6-1.1-17.2c-0.8-3.5-2-5.8-3.7-6.9c-1.7-1.1-4.5-1.6-8.4-1.6
			l-0.2-1.3h29.8l-0.2,1.3c-3.9,0-6.7,0.5-8.4,1.6s-2.9,3.4-3.6,6.9C484,25.3,483.6,31,483.6,39z"/>
		<path d="M571.6,10.9c12.9,0,23.2,3.9,30.9,11.8c7.7,7.9,11.6,18.1,11.6,30.6c0,12.5-3.7,23-11.2,31.3
			c-7.5,8.4-17.6,12.5-30.4,12.5c-12.8,0-23.1-4.2-30.9-12.6c-7.8-8.4-11.7-18.9-11.7-31.4c0-12.5,3.7-22.7,11.2-30.5
			C548.5,14.8,558.7,10.9,571.6,10.9z M572.3,94.4c10.2,0,18-3.7,23.3-11.1c5.3-7.4,8-17.1,8-29.2c0-12.1-2.8-21.8-8.4-29.3
			c-5.6-7.4-13.5-11.2-23.7-11.2c-10.2,0-18,3.7-23.3,11c-5.3,7.4-8,17.1-8,29.2s2.8,21.9,8.4,29.3
			C554.2,90.7,562.1,94.4,572.3,94.4z"/>
	</g>
</g>
</svg>
