<?xml version="1.0" encoding="utf-8"?>
<!-- Generator: Adobe Illustrator 24.2.1, SVG Export Plug-In . SVG Version: 6.00 Build 0)  -->
<svg version="1.1" id="Layer_1-waves" xmlns="http://www.w3.org/2000/svg" xmlns:xlink="http://www.w3.org/1999/xlink" x="0px" y="0px"
	 viewBox="0 0 340.9 140.7" style="enable-background:new 0 0 340.9 140.7;" xml:space="preserve">
<style type="text/css">
	.st0-waves{fill:none;stroke:#6FCDE1;stroke-width:3;stroke-linecap:round;stroke-miterlimit:10;}
</style>
<g>
	<path class="st0-waves" d="M207.8,51.9c12.1,2.8,19.7,6.9,19.7,11.5c0,8.4-25.6,15.2-57.1,15.2s-57.1-6.8-57.1-15.2
		c0-3.5,4.3-6.7,11.7-9.2"/>
	<path class="st0-waves" d="M214.6,45.4c24.5,4,40.9,11.2,40.9,19.4c0,12.5-38.1,22.7-85.1,22.7S85.4,77.4,85.4,64.9
		c0-7.3,12.9-13.8,33-18"/>
	<path class="st0-waves" d="M225.8,38.6c41.5,5.5,70,16.9,70,30.1c0,18.5-56.1,33.5-125.4,33.5S45,87.1,45,68.6
		c0-12.5,25.6-23.4,63.5-29.1"/>
</g>
</svg>
